<svg xmlns="http://www.w3.org/2000/svg" width="131" height="131" fill="none"><path fill="#8976F7" fill-rule="evenodd" d="M128.291 0H93.784C76.72 0 62.836 13.893 62.836 30.97v31.91H30.948C13.884 62.88 0 76.773 0 93.85v34.53A2.618 2.618 0 0 0 2.618 131h34.507c17.064 0 30.948-13.893 30.948-30.969V68.12h31.889c17.064 0 30.947-13.893 30.947-30.97V2.62A2.618 2.618 0 0 0 128.291 0ZM62.836 100.031c0 14.187-11.533 25.729-25.71 25.729H5.235V93.85c0-14.188 11.534-25.73 25.712-25.73h31.888v31.911ZM99.962 62.88c14.177 0 25.711-11.542 25.711-25.73V5.24h-31.89c-14.177 0-25.71 11.542-25.71 25.73v31.91h31.889Z" clip-rule="evenodd"/></svg>