<svg xmlns="http://www.w3.org/2000/svg" width="144" height="138" fill="none"><path fill="#8976F7" fill-rule="evenodd" d="M82.286 0h58.775A2.936 2.936 0 0 1 144 2.936V61.66a2.936 2.936 0 0 1-2.939 2.936H82.286a2.937 2.937 0 0 1-2.94-2.936V2.936A2.937 2.937 0 0 1 82.287 0Zm2.939 58.723h52.897V5.873H85.224v52.85ZM21.338 8.253a2.937 2.937 0 1 1-2.444-5.339 32.044 32.044 0 0 1 12.509-2.9c1.564-.062 2.976 1.23 3.022 2.852a2.94 2.94 0 0 1-2.856 3.017c-3.568.1-7.008.897-10.231 2.37ZM4.64 25.368c-.328 0-.66-.056-.987-.172a2.931 2.931 0 0 1-1.778-3.753A32.066 32.066 0 0 1 8.514 10.46a2.94 2.94 0 0 1 4.152-.176 2.933 2.933 0 0 1 .175 4.147 26.294 26.294 0 0 0-5.433 8.986 2.937 2.937 0 0 1-2.767 1.95Zm6.517 31.34a2.937 2.937 0 1 1 3.852-4.436 26.273 26.273 0 0 0 9.143 5.167 2.936 2.936 0 1 1-1.814 5.586 32.132 32.132 0 0 1-11.181-6.316Zm42.064-3.553a2.94 2.94 0 0 0 4.136-.413 32.192 32.192 0 0 0 5.998-11.347 2.939 2.939 0 0 0-1.992-3.644 2.935 2.935 0 0 0-3.65 1.99 26.188 26.188 0 0 1-4.909 9.282 2.935 2.935 0 0 0 .417 4.132Zm-45.97-5.265a2.939 2.939 0 0 1-3.936-1.334A31.89 31.89 0 0 1 .054 34.14a2.938 2.938 0 0 1 2.77-3.097c1.592-.104 3.007 1.15 3.096 2.768a26.163 26.163 0 0 0 2.666 10.146 2.934 2.934 0 0 1-1.334 3.932ZM31.914 61.8a2.937 2.937 0 0 0 3.176 2.678 32.072 32.072 0 0 0 12.326-3.613 2.933 2.933 0 0 0 1.223-3.968 2.94 2.94 0 0 0-3.972-1.225 26.175 26.175 0 0 1-10.076 2.953 2.937 2.937 0 0 0-2.677 3.175ZM41.92 7.664a26.32 26.32 0 0 1 8.836 5.682c.57.555 1.312.831 2.05.831a2.936 2.936 0 0 0 2.05-5.04 32.162 32.162 0 0 0-10.801-6.944 2.935 2.935 0 1 0-2.135 5.47ZM56.698 22.01a2.939 2.939 0 0 1 5.413-2.285 32.082 32.082 0 0 1 2.542 12.574 2.937 2.937 0 0 1-2.939 2.936 2.937 2.937 0 0 1-2.938-2.936c0-3.567-.7-7.028-2.078-10.289ZM2.938 73.404h58.776a2.937 2.937 0 0 1 2.94 2.936v58.724a2.937 2.937 0 0 1-2.94 2.936H2.94A2.937 2.937 0 0 1 0 135.064V76.34a2.937 2.937 0 0 1 2.939-2.936Zm2.94 58.724h52.898V79.277H5.877v52.851Zm105.795-58.724c-17.825 0-32.326 14.489-32.326 32.298S93.848 138 111.673 138C129.499 138 144 123.511 144 105.702c0-17.81-14.501-32.298-32.327-32.298Zm0 58.724c-14.585 0-26.448-11.855-26.448-26.426 0-14.57 11.863-26.425 26.448-26.425 14.586 0 26.449 11.854 26.449 26.425 0 14.571-11.863 26.426-26.449 26.426Zm0-38.17c-6.482 0-11.755 5.268-11.755 11.744s5.273 11.745 11.755 11.745c6.483 0 11.756-5.269 11.756-11.745 0-6.476-5.273-11.745-11.756-11.745Zm0 17.616a5.88 5.88 0 0 1-5.877-5.872 5.882 5.882 0 0 1 5.877-5.872c3.24 0 5.878 2.634 5.878 5.872 0 3.239-2.638 5.872-5.878 5.872Z" clip-rule="evenodd"/></svg>