<svg xmlns="http://www.w3.org/2000/svg" width="115" height="136" fill="none"><path fill="#8976F7" fill-rule="evenodd" d="m58.755.34 55 31.97A2.505 2.505 0 0 1 115 34.476v65.113c0 .879-.461 1.693-1.211 2.146l-55 33.142a2.497 2.497 0 0 1-2.578 0l-55-33.142A2.506 2.506 0 0 1 0 99.589V34.476c0-.893.475-1.718 1.245-2.166l55-31.97a2.49 2.49 0 0 1 2.51 0Zm48.798 34.155L57.5 5.401 5 35.917V95.2l32.5-19.237V57.308c0-.887.469-1.708 1.233-2.158L55 45.566V31.97a2.502 2.502 0 0 1 2.5-2.504c1.38 0 2.5 1.121 2.5 2.504v13.595l14.46 8.519 33.093-19.59ZM57.5 85.333l-15-8.836V58.741l15-8.837 15 8.837v17.756l-15 8.836ZM7.382 99.608 57.5 129.81l52.501-31.636v-59.31l-32.5 19.24v19.826c0 .887-.47 1.707-1.234 2.158L60.002 89.67v12.423a2.502 2.502 0 0 1-2.5 2.504c-1.381 0-2.5-1.121-2.5-2.504V89.67l-15.452-9.103L7.382 99.608Z" clip-rule="evenodd"/></svg>